<?xml version="1.0" encoding="UTF-8"?>
<svg id="Layer_2" data-name="Layer 2" xmlns="http://www.w3.org/2000/svg" viewBox="0 0 49 40.99">
  <defs>
    <style>
      .cls-1 {
        fill: none;
      }

      .cls-2 {
        fill: #4e3411;
      }
    </style>
  </defs>
  <g id="Layer_1-2" data-name="Layer 1">
    <path class="cls-1" d="m0,0h49v40.99H0c0-13.66,0-27.33,0-40.99Zm24.49,16.58c-6.57,0-13.15,0-19.72,0-.26,0-.51.02-.77.06-2.21.37-3.66,2.64-3.08,4.81.47,1.76,2,2.91,3.86,2.91,13.13,0,26.26,0,39.39,0,.27,0,.54-.02.8-.06,2.13-.35,3.59-2.49,3.14-4.6-.39-1.85-1.97-3.13-3.86-3.13-6.59,0-13.17,0-19.76,0Zm-.01,23.59c6.58,0,13.16,0,19.74,0,.25,0,.51-.02.75-.06,2.08-.35,3.52-2.37,3.17-4.45-.32-1.92-1.94-3.28-3.89-3.28-13.17,0-26.35,0-39.52,0-.24,0-.47.02-.71.06-2.25.38-3.69,2.63-3.1,4.83.46,1.73,2,2.9,3.8,2.9,6.58,0,13.17,0,19.75,0Zm0-31.59c6.58,0,13.16,0,19.74,0,.24,0,.48-.02.72-.06,2.77-.46,4.16-3.64,2.6-5.97-.8-1.2-1.96-1.76-3.4-1.76-13.13,0-26.26,0-39.39,0-.26,0-.51.02-.77.07C1.78,1.24.34,3.49.92,5.67c.46,1.73,1.99,2.91,3.79,2.91,6.59,0,13.18,0,19.77,0Z"/>
    <path class="cls-2" d="m24.49,16.58c6.59,0,13.17,0,19.76,0,1.89,0,3.47,1.28,3.86,3.13.45,2.12-1.01,4.26-3.14,4.6-.26.04-.54.06-.8.06-13.13,0-26.26,0-39.39,0-1.86,0-3.38-1.16-3.86-2.91-.58-2.17.86-4.44,3.08-4.81.25-.04.51-.06.77-.06,6.57,0,13.15,0,19.72,0Z"/>
    <path class="cls-2" d="m24.48,40.17c-6.58,0-13.17,0-19.75,0-1.81,0-3.34-1.17-3.8-2.9-.59-2.2.85-4.45,3.1-4.83.23-.04.47-.06.71-.06,13.17,0,26.35,0,39.52,0,1.95,0,3.57,1.36,3.89,3.28.35,2.08-1.09,4.1-3.17,4.45-.25.04-.5.06-.75.06-6.58,0-13.16,0-19.74,0Z"/>
    <path class="cls-2" d="m24.49,8.58c-6.59,0-13.18,0-19.77,0-1.8,0-3.33-1.18-3.79-2.91C.34,3.49,1.78,1.24,3.99.86c.25-.04.51-.07.77-.07,13.13,0,26.26,0,39.39,0,1.44,0,2.6.56,3.4,1.76,1.55,2.34.16,5.51-2.6,5.97-.24.04-.48.06-.72.06-6.58,0-13.16,0-19.74,0Z"/>
  </g>
</svg>