<?xml version="1.0" encoding="UTF-8"?>
<svg id="Layer_2" data-name="Layer 2" xmlns="http://www.w3.org/2000/svg" viewBox="0 0 310.28 170.3">
  <defs>
    <style>
      .cls-1, .cls-2 {
        fill: #231f20;
      }

      .cls-3 {
        font-size: 65.35px;
        letter-spacing: -.03em;
      }

      .cls-2 {
        font-family: Palatino-Bold, Palatino;
        font-weight: 700;
      }

      .cls-4 {
        font-size: 76.24px;
        letter-spacing: .03em;
      }
    </style>
  </defs>
  <g id="Layer_1-2" data-name="Layer 1">
    <g>
      <g>
        <path class="cls-1" d="m60.33,146.17c-16.98,0-33.34-2.48-47.9-7.13,4.08,8.74,9.16,17.48,15.25,26.21,1.3,1.86,3.49,3.12,5.97,3.41,19.22,2.27,36.71,2.1,52.89.03,2.44-.31,4.58-1.57,5.85-3.39,6.06-8.68,11.11-17.36,15.19-26.05-14.39,4.52-30.52,6.92-47.25,6.92Z"/>
        <path class="cls-1" d="m60.33,24.3c16.5,0,32.41,2.34,46.65,6.74-3.98-8.29-8.87-16.59-14.67-24.88-1.24-1.77-3.28-3-5.63-3.36C68.93.04,51.18.04,33.43,2.79c-2.35.36-4.39,1.59-5.63,3.36-5.84,8.36-10.76,16.72-14.76,25.07,14.4-4.53,30.54-6.93,47.29-6.93Z"/>
      </g>
      <g>
        <path class="cls-1" d="m60.33,49.88c20.24,0,39.56,2.15,55.89,6.12-1.36-5.19-3.06-10.38-5.12-15.57-14.62-5.44-32.06-8.6-50.76-8.6s-36.66,3.26-51.42,8.85c-2.04,5.16-3.72,10.31-5.06,15.47,16.45-4.07,36-6.27,56.48-6.27Z"/>
        <path class="cls-1" d="m117.69,109.3c3.31-16.06,3.23-32.13-.25-48.19-15.63-4.29-35.5-6.86-57.11-6.86s-41.97,2.64-57.7,7.02c-3.43,15.96-3.51,31.91-.24,47.87,15.76,4.43,35.95,7.09,57.94,7.09s41.68-2.6,57.35-6.93Z"/>
        <path class="cls-1" d="m60.33,120.59c-20.61,0-40.26-2.23-56.78-6.34,1.28,5.12,2.89,10.24,4.86,15.36,14.85,5.71,32.72,9.04,51.91,9.04s36.54-3.24,51.27-8.79c1.99-5.15,3.63-10.3,4.92-15.45-16.39,4.02-35.82,6.19-56.19,6.19Z"/>
      </g>
      <text class="cls-2" transform="translate(129.43 64.2)"><tspan class="cls-4"><tspan x="0" y="0">Billy</tspan></tspan><tspan class="cls-3"><tspan x="0" y="60">Beer</tspan></tspan></text>
    </g>
  </g>
</svg>